<?xml version="1.0" standalone="no"?>
<!DOCTYPE svg PUBLIC "-//W3C//DTD SVG 20010904//EN"
 "http://www.w3.org/TR/2001/REC-SVG-20010904/DTD/svg10.dtd">
<svg version="1.0" xmlns="http://www.w3.org/2000/svg"
 width="128.000000pt" height="128.000000pt" viewBox="0 0 128.000000 128.000000"
 preserveAspectRatio="xMidYMid meet">
<metadata>
Created by potrace 1.11, written by Peter Selinger 2001-2013
</metadata>
<g transform="translate(0.000000,128.000000) scale(0.100000,-0.100000)"
fill="#000000" stroke="none">
<path d="M486 1255 c-218 -55 -403 -237 -462 -455 -28 -102 -24 -254 9 -356
43 -132 123 -242 232 -320 369 -262 876 -80 990 356 22 83 23 225 1 310 -52
206 -208 377 -408 447 -92 33 -268 41 -362 18z m285 -285 c10 -6 19 -21 19
-34 0 -26 -205 -583 -222 -603 -18 -22 -57 -16 -69 11 -9 20 5 66 96 312 94
254 127 324 152 324 2 0 13 -5 24 -10z m-330 -110 c36 -20 22 -51 -58 -132
l-77 -77 77 -80 c42 -43 77 -86 77 -94 0 -21 -27 -47 -48 -47 -10 0 -67 50
-127 110 l-110 111 111 109 c61 61 116 110 123 110 7 0 21 -5 32 -10z m557
-103 l112 -113 -108 -107 c-107 -105 -134 -121 -160 -95 -27 27 -12 60 60 134
l71 74 -76 79 c-42 43 -77 84 -77 92 0 18 31 49 49 49 9 0 67 -51 129 -113z"/>
</g>
</svg>
